# xmcd
#
# Track frame offsets:
# 150
# 11441
# 28735
# 45741
# 59532
# 79607
# 93399
# 110760
# 135907
# 148128
# 167206
# 186073
# 200087
# 216596
# 232696
# 244982
# 269126
# 286180
#
# Disc length: 4139 seconds
#
#
# Revision: 2
# Processed by: cddbd v1.5.2PL0 Copyright (c) Steve Scherf et al.
# Submitted via: FreeRIP 2.941 
#
DISCID=0e102912
DTITLE=Asas Livres - ARROCHA
DYEAR=2003
DGENRE=Alternative
TTITLE0=Perigo
TTITLE1=Quero Ser Feliz
TTITLE2=Amo em Silêncio
TTITLE3=Toque de Mágica
TTITLE4=Passou da Conta
TTITLE5=A Dor desse Amor
TTITLE6=Não Seja Criança
TTITLE7=Nem Mais uma Dúvida
TTITLE8=Se Errar Outra Vez
TTITLE9=Carente de Felicidade
TTITLE10=Arrocha
TTITLE11=Te Amo Demais
TTITLE12=Tá Com Raiva de Mim
TTITLE13=Coisas do Coração
TTITLE14=Bicho no Cio
TTITLE15=A Ferro e Fogo
TTITLE16=Tô Por Aí
TTITLE17=Por Deus Eu Te Amo
EXTD=YEAR: 2003
EXTT0=
EXTT1=
EXTT2=
EXTT3=
EXTT4=
EXTT5=
EXTT6=
EXTT7=
EXTT8=
EXTT9=
EXTT10=
EXTT11=
EXTT12=
EXTT13=
EXTT14=
EXTT15=
EXTT16=
EXTT17=
PLAYORDER=
